<svg width="28" height="28" viewBox="0 0 28 28" fill="none" xmlns="http://www.w3.org/2000/svg">
<path fill-rule="evenodd" clip-rule="evenodd" d="M2.0496 25.9504C4.102 28 7.4004 28 14 28C20.5996 28 23.8994 28 25.949 25.949C28 23.9008 28 20.5996 28 14C28 7.4004 28 4.1006 25.949 2.0496C23.9008 0 20.5996 0 14 0C7.4004 0 4.1006 0 2.0496 2.0496C0 4.102 0 7.4004 0 14C0 20.5996 0 23.9008 2.0496 25.9504ZM23.45 19.6C23.45 19.8785 23.3394 20.1455 23.1425 20.3425C22.9455 20.5394 22.6785 20.65 22.4 20.65H5.6C5.32152 20.65 5.05445 20.5394 4.85754 20.3425C4.66062 20.1455 4.55 19.8785 4.55 19.6C4.55 19.3215 4.66062 19.0545 4.85754 18.8575C5.05445 18.6606 5.32152 18.55 5.6 18.55H22.4C22.6785 18.55 22.9455 18.6606 23.1425 18.8575C23.3394 19.0545 23.45 19.3215 23.45 19.6ZM22.4 15.05C22.6785 15.05 22.9455 14.9394 23.1425 14.7425C23.3394 14.5455 23.45 14.2785 23.45 14C23.45 13.7215 23.3394 13.4545 23.1425 13.2575C22.9455 13.0606 22.6785 12.95 22.4 12.95H5.6C5.32152 12.95 5.05445 13.0606 4.85754 13.2575C4.66062 13.4545 4.55 13.7215 4.55 14C4.55 14.2785 4.66062 14.5455 4.85754 14.7425C5.05445 14.9394 5.32152 15.05 5.6 15.05H22.4ZM23.45 8.4C23.45 8.67848 23.3394 8.94555 23.1425 9.14246C22.9455 9.33937 22.6785 9.45 22.4 9.45H5.6C5.32152 9.45 5.05445 9.33937 4.85754 9.14246C4.66062 8.94555 4.55 8.67848 4.55 8.4C4.55 8.12152 4.66062 7.85445 4.85754 7.65754C5.05445 7.46062 5.32152 7.35 5.6 7.35H22.4C22.6785 7.35 22.9455 7.46062 23.1425 7.65754C23.3394 7.85445 23.45 8.12152 23.45 8.4Z" fill="white"/>
<rect x="4" y="4" width="20" height="21" fill="white"/>
<path fill-rule="evenodd" clip-rule="evenodd" d="M14 24C15.3132 24 16.6136 23.7413 17.8268 23.2388C19.0401 22.7362 20.1425 21.9997 21.0711 21.0711C21.9997 20.1425 22.7362 19.0401 23.2388 17.8268C23.7413 16.6136 24 15.3132 24 14C24 12.6868 23.7413 11.3864 23.2388 10.1732C22.7362 8.95991 21.9997 7.85752 21.0711 6.92893C20.1425 6.00035 19.0401 5.26375 17.8268 4.7612C16.6136 4.25866 15.3132 4 14 4C11.3478 4 8.8043 5.05357 6.92893 6.92893C5.05357 8.8043 4 11.3478 4 14C4 16.6522 5.05357 19.1957 6.92893 21.0711C8.8043 22.9464 11.3478 24 14 24ZM17.237 5.62715C17.6267 6.04612 17.9786 6.53437 18.2871 7.07243C18.8533 8.05218 19.295 9.22681 19.5808 10.5259C20.0305 10.6385 20.4512 10.7641 20.8431 10.9027C21.5663 11.1593 22.2018 11.4624 22.7052 11.8121C22.3536 10.4195 21.6737 9.13136 20.7224 8.05534C19.7711 6.97933 18.576 6.14672 17.237 5.62715ZM22.8351 15.5828C22.3122 15.9714 21.6302 16.3059 20.8431 16.5842C20.4837 16.7112 20.099 16.8274 19.6891 16.9328C19.4141 18.4484 18.9313 19.8125 18.2882 20.9276C17.9928 21.447 17.6402 21.9318 17.237 22.3728C18.6741 21.8161 19.9438 20.8992 20.9242 19.71C21.9046 18.5209 22.5626 17.0996 22.8351 15.5828ZM10.7641 22.3728C10.3605 21.9319 10.0076 21.4471 9.71181 20.9276C9.06983 19.8125 8.5859 18.4484 8.31092 16.9328C7.92144 16.8331 7.5364 16.7168 7.15687 16.5842C6.36982 16.3059 5.68778 15.9714 5.16488 15.5828C5.43738 17.0996 6.09543 18.5209 7.07581 19.71C8.05619 20.8992 9.32701 21.8161 10.7641 22.3728ZM5.29371 11.811C5.79712 11.4624 6.43261 11.1593 7.15579 10.9027C7.54769 10.7648 7.96846 10.6392 8.4181 10.5259C8.70391 9.22681 9.14561 8.05218 9.71073 7.07243C10.0061 6.55297 10.3587 6.0682 10.7619 5.62715C9.42348 6.1469 8.22887 6.97947 7.27794 8.05527C6.32701 9.13106 5.64739 10.4188 5.29588 11.811M17.3994 7.58341C17.8422 8.35206 18.207 9.26578 18.4701 10.2856C17.1637 10.0502 15.8404 9.92207 14.5132 9.90235V5.12807C15.5719 5.33377 16.5896 6.1782 17.3994 7.58341ZM18.7028 11.3769C17.3232 11.0977 15.9206 10.9473 14.5132 10.9276V16.5593C16.0797 16.529 17.5358 16.3612 18.784 16.0938C18.8757 15.4211 18.9219 14.7232 18.9226 14C18.9226 13.0852 18.8457 12.205 18.7028 11.3769ZM13.4868 5.12699V9.90127C12.16 9.92141 10.837 10.0499 9.53102 10.2856C9.79301 9.26578 10.1589 8.35098 10.6006 7.58341C11.4104 6.17928 12.4281 5.33377 13.4868 5.12699ZM13.4868 10.9276C12.0794 10.9473 10.6768 11.0977 9.29717 11.3769C9.14958 12.2434 9.07606 13.121 9.07741 14C9.07741 14.7221 9.12504 15.4225 9.21598 16.0927C10.4642 16.3612 11.9203 16.529 13.4868 16.5582V10.9276ZM7.49897 11.8694C7.72632 11.79 7.96557 11.7143 8.21674 11.6421C8.01985 13.0286 7.9973 14.4343 8.14962 15.8264C7.92227 15.7592 7.70539 15.6896 7.49897 15.6174C6.67619 15.3262 6.04828 14.9927 5.63473 14.6474C5.21793 14.2999 5.07719 13.9924 5.07719 13.7434C5.07719 13.4944 5.21793 13.187 5.63473 12.8395C6.04828 12.4941 6.67619 12.1607 7.49897 11.8705M10.6006 20.4177C10.0821 19.5169 9.66959 18.4149 9.40435 17.1785C10.6364 17.4156 12.0221 17.5585 13.4868 17.5856V22.8741C12.4281 22.6673 11.4104 21.8229 10.6006 20.4177ZM14.5132 22.873V17.5834C15.883 17.5633 17.2488 17.4271 18.5956 17.1764C18.3315 18.4138 17.9179 19.5148 17.3994 20.4155C16.5896 21.8196 15.5719 22.6662 14.5132 22.873ZM19.9478 14C19.9478 14.6236 19.9153 15.2324 19.8504 15.8264C20.0777 15.76 20.2946 15.6903 20.501 15.6174C21.3238 15.3262 21.9517 14.9927 22.3653 14.6474C22.7821 14.2999 22.9228 13.9924 22.9228 13.7434C22.9228 13.4944 22.7821 13.187 22.3653 12.8395C21.9517 12.4941 21.3238 12.1607 20.501 11.8705C20.2737 11.7904 20.0344 11.7143 19.7833 11.6421C19.8915 12.3999 19.9489 13.1891 19.9489 14" fill="#52AEF9"/>
</svg>
